<svg xmlns="http://www.w3.org/2000/svg" viewBox="0 0 520 140" role="img" aria-label="Barbearia">
  <defs>
    <linearGradient id="g" x1="0" y1="0" x2="1" y2="1">
      <stop offset="0" stop-color="#111827"/>
      <stop offset="1" stop-color="#0f172a"/>
    </linearGradient>
  </defs>
  <rect x="10" y="10" width="120" height="120" rx="28" fill="url(#g)"/>
  <path d="M56 40c10 0 18 7 18 17 0 6-3 12-8 15v9c0 6-5 11-11 11s-11-5-11-11v-9c-5-3-8-9-8-15 0-10 8-17 20-17z"
        fill="#fff" opacity=".95"/>
  <path d="M42 94h56c2 0 3 2 2 4-6 14-20 24-30 24S50 112 44 98c-1-2 0-4 2-4z"
        fill="#fff" opacity=".95"/>
  <text x="150" y="72" font-family="ui-sans-serif, system-ui, -apple-system, Segoe UI, Roboto, Arial"
        font-size="44" font-weight="800" fill="#0f172a">Barbearia</text>
  <text x="150" y="106" font-family="ui-sans-serif, system-ui, -apple-system, Segoe UI, Roboto, Arial"
        font-size="18" font-weight="600" fill="#475569">Agendamentos online • 08–20 • Seg–Sáb</text>
</svg>
